<svg width="50" height="50" viewBox="0 0 50 50" fill="none" xmlns="http://www.w3.org/2000/svg">
<path d="M25 4.1665C22.2641 4.1665 19.555 4.70537 17.0274 5.75235C14.4998 6.79932 12.2031 8.33389 10.2686 10.2684C6.36156 14.1755 4.16663 19.4745 4.16663 24.9998C4.16663 30.5252 6.36156 35.8242 10.2686 39.7312C12.2031 41.6658 14.4998 43.2004 17.0274 44.2473C19.555 45.2943 22.2641 45.8332 25 45.8332C30.5253 45.8332 35.8243 43.6382 39.7313 39.7312C43.6384 35.8242 45.8333 30.5252 45.8333 24.9998C45.8333 22.264 45.2944 19.5549 44.2475 17.0273C43.2005 14.4996 41.6659 12.203 39.7313 10.2684C37.7968 8.33389 35.5001 6.79932 32.9725 5.75235C30.4449 4.70537 27.7358 4.1665 25 4.1665ZM14.7291 38.0832C15.625 36.2082 21.0833 34.3748 25 34.3748C28.9166 34.3748 34.375 36.2082 35.2708 38.0832C32.3528 40.4082 28.7309 41.6718 25 41.6665C21.125 41.6665 17.5625 40.3332 14.7291 38.0832ZM38.25 35.0623C35.2708 31.4373 28.0416 30.2082 25 30.2082C21.9583 30.2082 14.7291 31.4373 11.75 35.0623C9.53368 32.1761 8.3326 28.6388 8.33329 24.9998C8.33329 15.8123 15.8125 8.33317 25 8.33317C34.1875 8.33317 41.6666 15.8123 41.6666 24.9998C41.6666 28.7915 40.375 32.2915 38.25 35.0623ZM25 12.4998C20.9583 12.4998 17.7083 15.7498 17.7083 19.7915C17.7083 23.8332 20.9583 27.0832 25 27.0832C29.0416 27.0832 32.2916 23.8332 32.2916 19.7915C32.2916 15.7498 29.0416 12.4998 25 12.4998ZM25 22.9165C24.1712 22.9165 23.3763 22.5873 22.7902 22.0012C22.2042 21.4152 21.875 20.6203 21.875 19.7915C21.875 18.9627 22.2042 18.1678 22.7902 17.5818C23.3763 16.9957 24.1712 16.6665 25 16.6665C25.8288 16.6665 26.6236 16.9957 27.2097 17.5818C27.7957 18.1678 28.125 18.9627 28.125 19.7915C28.125 20.6203 27.7957 21.4152 27.2097 22.0012C26.6236 22.5873 25.8288 22.9165 25 22.9165Z" fill="#497BFE"/>
</svg>
